<?xml version="1.0" encoding="UTF-8"?>
<!DOCTYPE svg PUBLIC "-//W3C//DTD SVG 1.1//EN" "http://www.w3.org/Graphics/SVG/1.1/DTD/svg11.dtd">
<svg xmlns="http://www.w3.org/2000/svg" version="1.1" width="320px" height="301px" style="shape-rendering:geometricPrecision; text-rendering:geometricPrecision; image-rendering:optimizeQuality; fill-rule:evenodd; clip-rule:evenodd" xmlns:xlink="http://www.w3.org/1999/xlink">
<g><path style="opacity:0.988" fill="#fdfefd" d="M 149.5,18.5 C 205.808,17.3895 247.308,41.3895 274,90.5C 295.71,142.502 288.71,190.169 253,233.5C 211.872,273.736 164.039,284.236 109.5,265C 59.3527,241.578 33.0193,202.078 30.5,146.5C 32.5983,94.0986 56.5983,55.5986 102.5,31C 117.587,24.147 133.253,19.9803 149.5,18.5 Z"/></g>
<g><path style="opacity:1" fill="#3c74b2" d="M 196.5,106.5 C 190.198,106.652 184.864,108.985 180.5,113.5C 179.407,108.773 179.407,104.273 180.5,100C 179.181,99.805 177.847,99.9717 176.5,100.5C 178.484,97.8361 181.151,96.1695 184.5,95.5C 188.587,95.52 192.587,95.3533 196.5,95C 197.167,95.6667 197.833,96.3333 198.5,97C 194.431,97.1464 192.098,98.8131 191.5,102C 193.362,103.366 195.028,104.866 196.5,106.5 Z"/></g>
<g><path style="opacity:1" fill="#eba435" d="M 105.5,94.5 C 106.167,94.5 106.5,94.8333 106.5,95.5C 106.5,100.5 106.5,105.5 106.5,110.5C 105.89,112.434 104.89,114.101 103.5,115.5C 99.6266,115.666 98.9599,114.666 101.5,112.5C 103.519,111.462 103.853,110.128 102.5,108.5C 102.527,106.801 103.194,105.467 104.5,104.5C 104.975,101.918 104.308,99.9179 102.5,98.5C 102.5,98.1667 102.5,97.8333 102.5,97.5C 103.1,96.0998 104.1,95.0998 105.5,94.5 Z"/></g>
<g><path style="opacity:1" fill="#468dbe" d="M 198.5,94.5 C 201.67,95.5531 204.67,97.0531 207.5,99C 207.171,102.892 206.171,106.392 204.5,109.5C 201.838,108.501 199.172,107.501 196.5,106.5C 195.028,104.866 193.362,103.366 191.5,102C 192.098,98.8131 194.431,97.1464 198.5,97C 197.833,96.3333 197.167,95.6667 196.5,95C 192.587,95.3533 188.587,95.52 184.5,95.5C 189.072,93.442 193.738,93.1087 198.5,94.5 Z"/></g>
<g><path style="opacity:1" fill="#eccb79" d="M 102.5,98.5 C 104.308,99.9179 104.975,101.918 104.5,104.5C 103.5,104.5 102.5,104.5 101.5,104.5C 101.205,102.265 101.539,100.265 102.5,98.5 Z"/></g>
<g><path style="opacity:1" fill="#3e78b2" d="M 143.5,94.5 C 146.073,94.1485 148.406,94.6485 150.5,96C 148.285,97.3907 148.285,99.0574 150.5,101C 150.33,102.57 149.997,104.403 149.5,106.5C 144.719,106.391 140.386,107.724 136.5,110.5C 136.467,106.898 137.801,103.898 140.5,101.5C 136.909,99.6767 133.242,99.3434 129.5,100.5C 133.17,96.3353 137.837,94.3353 143.5,94.5 Z"/></g>
<g><path style="opacity:1" fill="#f2d56a" d="M 105.5,94.5 C 104.1,95.0998 103.1,96.0998 102.5,97.5C 101.5,97.5 100.5,97.5 99.5,97.5C 99.8134,100.247 99.48,102.914 98.5,105.5C 96.6162,106.115 95.6162,107.448 95.5,109.5C 95.7284,111.207 96.0617,112.874 96.5,114.5C 95.0937,114.027 94.427,113.027 94.5,111.5C 94.2143,105.741 94.5476,100.075 95.5,94.5C 98.8333,93.1667 102.167,93.1667 105.5,94.5 Z"/></g>
<g><path style="opacity:1" fill="#395da6" d="M 136.5,110.5 C 133.485,113.532 131.818,117.199 131.5,121.5C 126.833,121.5 122.167,121.5 117.5,121.5C 118.242,112.472 122.242,105.472 129.5,100.5C 133.242,99.3434 136.909,99.6767 140.5,101.5C 137.801,103.898 136.467,106.898 136.5,110.5 Z"/></g>
<g><path style="opacity:1" fill="#ebcd7d" d="M 106.5,95.5 C 107.451,96.9187 107.784,98.5853 107.5,100.5C 108.5,100.5 109.5,100.5 110.5,100.5C 110.662,102.527 110.495,104.527 110,106.5C 108.45,107.591 107.283,108.924 106.5,110.5C 106.5,105.5 106.5,100.5 106.5,95.5 Z"/></g>
<g><path style="opacity:1" fill="#f3e292" d="M 95.5,94.5 C 94.5476,100.075 94.2143,105.741 94.5,111.5C 90.6284,105.564 90.9618,99.8974 95.5,94.5 Z"/></g>
<g><path style="opacity:1" fill="#4e9fc8" d="M 143.5,94.5 C 154.307,92.6607 163.307,95.9941 170.5,104.5C 170.267,106.062 169.6,107.395 168.5,108.5C 166.726,111.624 165.393,114.958 164.5,118.5C 161.309,112.315 156.309,108.315 149.5,106.5C 149.997,104.403 150.33,102.57 150.5,101C 148.285,99.0574 148.285,97.3907 150.5,96C 148.406,94.6485 146.073,94.1485 143.5,94.5 Z"/></g>
<g><path style="opacity:1" fill="#3353a2" d="M 168.5,108.5 C 170.144,108.286 171.644,108.62 173,109.5C 172.676,111.777 173.176,114.11 174.5,116.5C 173.051,134.506 172.051,152.506 171.5,170.5C 169.315,170.296 167.315,169.63 165.5,168.5C 164.515,151.911 164.182,135.244 164.5,118.5C 165.393,114.958 166.726,111.624 168.5,108.5 Z"/></g>
<g><path style="opacity:1" fill="#f5c842" d="M 102.5,97.5 C 102.5,97.8333 102.5,98.1667 102.5,98.5C 101.539,100.265 101.205,102.265 101.5,104.5C 102.5,104.5 103.5,104.5 104.5,104.5C 103.194,105.467 102.527,106.801 102.5,108.5C 100.833,108.5 99.1667,108.5 97.5,108.5C 97.1667,111.5 98.5,112.833 101.5,112.5C 98.9599,114.666 99.6266,115.666 103.5,115.5C 102.726,116.147 101.726,116.48 100.5,116.5C 98.6455,116.66 97.3121,115.993 96.5,114.5C 96.0617,112.874 95.7284,111.207 95.5,109.5C 95.6162,107.448 96.6162,106.115 98.5,105.5C 99.48,102.914 99.8134,100.247 99.5,97.5C 100.5,97.5 101.5,97.5 102.5,97.5 Z"/></g>
<g><path style="opacity:1" fill="#efdf90" d="M 102.5,108.5 C 103.853,110.128 103.519,111.462 101.5,112.5C 98.5,112.833 97.1667,111.5 97.5,108.5C 99.1667,108.5 100.833,108.5 102.5,108.5 Z"/></g>
<g><path style="opacity:1" fill="#335ca6" d="M 180.5,113.5 C 179.489,115.372 178.655,117.372 178,119.5C 177.667,135.833 177.333,152.167 177,168.5C 173.135,173.776 169.302,173.776 165.5,168.5C 167.315,169.63 169.315,170.296 171.5,170.5C 172.051,152.506 173.051,134.506 174.5,116.5C 173.176,114.11 172.676,111.777 173,109.5C 171.644,108.62 170.144,108.286 168.5,108.5C 169.6,107.395 170.267,106.062 170.5,104.5C 172.228,102.774 174.228,101.441 176.5,100.5C 177.847,99.9717 179.181,99.805 180.5,100C 179.407,104.273 179.407,108.773 180.5,113.5 Z"/></g>
<g><path style="opacity:1" fill="#57bbd6" d="M 211.5,98.5 C 217.621,102.746 221.788,108.413 224,115.5C 224.667,133.167 224.667,150.833 224,168.5C 222.741,171.217 220.574,172.55 217.5,172.5C 215.97,172.36 214.97,171.693 214.5,170.5C 216.484,170.617 218.15,169.95 219.5,168.5C 218.311,167.571 216.978,167.238 215.5,167.5C 216.887,160.344 217.554,153.011 217.5,145.5C 216.268,134.959 215.268,124.292 214.5,113.5C 214.39,111.24 214.723,108.906 215.5,106.5C 214.27,103.846 212.936,101.18 211.5,98.5 Z"/></g>
<g><path style="opacity:1" fill="#bf3777" d="M 97.5,122.5 C 103.979,121.509 110.646,121.176 117.5,121.5C 122.167,121.5 126.833,121.5 131.5,121.5C 137.842,121.334 144.175,121.5 150.5,122C 155.996,126.676 155.662,130.843 149.5,134.5C 143.167,134.5 136.833,134.5 130.5,134.5C 126.167,134.5 121.833,134.5 117.5,134.5C 117.5,133.833 117.833,133.5 118.5,133.5C 123.179,133.666 127.845,133.499 132.5,133C 133.253,131.513 134.086,131.346 135,132.5C 135.361,129.149 135.861,125.983 136.5,123C 132.179,122.501 127.846,122.334 123.5,122.5C 114.833,122.5 106.167,122.5 97.5,122.5 Z"/></g>
<g><path style="opacity:1" fill="#d03773" d="M 123.5,122.5 C 127.846,122.334 132.179,122.501 136.5,123C 135.861,125.983 135.361,129.149 135,132.5C 134.086,131.346 133.253,131.513 132.5,133C 127.845,133.499 123.179,133.666 118.5,133.5C 120.607,132.532 122.941,132.198 125.5,132.5C 125.296,129.455 125.296,126.621 125.5,124C 124.584,123.722 123.918,123.222 123.5,122.5 Z"/></g>
<g><path style="opacity:1" fill="#e95965" d="M 96.5,123.5 C 99.8984,123.18 103.232,123.513 106.5,124.5C 105.271,125.281 103.938,125.781 102.5,126C 104.481,126.605 104.815,127.605 103.5,129C 104.27,131.607 104.937,134.273 105.5,137C 104.497,148.006 104.164,159.173 104.5,170.5C 100.911,172.146 97.744,171.48 95,168.5C 94.3333,153.833 94.3333,139.167 95,124.5C 95.3826,123.944 95.8826,123.611 96.5,123.5 Z"/></g>
<g><path style="opacity:1" fill="#e0566c" d="M 96.5,123.5 C 96.5,122.833 96.8333,122.5 97.5,122.5C 106.167,122.5 114.833,122.5 123.5,122.5C 123.918,123.222 124.584,123.722 125.5,124C 125.296,126.621 125.296,129.455 125.5,132.5C 122.941,132.198 120.607,132.532 118.5,133.5C 117.833,133.5 117.5,133.833 117.5,134.5C 114.167,134.5 110.833,134.5 107.5,134.5C 107.667,145.505 107.5,156.505 107,167.5C 106.623,168.942 105.79,169.942 104.5,170.5C 104.164,159.173 104.497,148.006 105.5,137C 104.937,134.273 104.27,131.607 103.5,129C 104.815,127.605 104.481,126.605 102.5,126C 103.938,125.781 105.271,125.281 106.5,124.5C 103.232,123.513 99.8984,123.18 96.5,123.5 Z"/></g>
<g><path style="opacity:1" fill="#3654a0" d="M 117.5,134.5 C 121.833,134.5 126.167,134.5 130.5,134.5C 130.5,145.5 130.5,156.5 130.5,167.5C 126.381,174.086 122.214,174.086 118,167.5C 117.5,156.505 117.333,145.505 117.5,134.5 Z"/></g>
<g><path style="opacity:1" fill="#c1c8da" d="M 130.5,134.5 C 136.833,134.5 143.167,134.5 149.5,134.5C 143.69,135.49 137.69,135.823 131.5,135.5C 131.828,146.346 131.494,157.013 130.5,167.5C 130.5,156.5 130.5,145.5 130.5,134.5 Z"/></g>
<g><path style="opacity:1" fill="#52accf" d="M 198.5,94.5 C 203.281,94.391 207.614,95.7244 211.5,98.5C 212.936,101.18 214.27,103.846 215.5,106.5C 214.723,108.906 214.39,111.24 214.5,113.5C 215.268,124.292 216.268,134.959 217.5,145.5C 217.554,153.011 216.887,160.344 215.5,167.5C 216.978,167.238 218.311,167.571 219.5,168.5C 218.15,169.95 216.484,170.617 214.5,170.5C 213.21,169.942 212.377,168.942 212,167.5C 211.667,150.833 211.333,134.167 211,117.5C 208.999,114.669 206.833,112.003 204.5,109.5C 206.171,106.392 207.171,102.892 207.5,99C 204.67,97.0531 201.67,95.5531 198.5,94.5 Z"/></g>
<g><path style="opacity:1" fill="#1c1c1c" d="M 94.5,181.5 C 95.5,181.5 96.5,181.5 97.5,181.5C 97.5,182.5 97.5,183.5 97.5,184.5C 96.5,184.5 95.5,184.5 94.5,184.5C 94.5,183.5 94.5,182.5 94.5,181.5 Z"/></g>
<g><path style="opacity:1" fill="#1b1b1b" d="M 217.5,182.5 C 218.5,182.5 219.5,182.5 220.5,182.5C 220.5,183.833 220.5,185.167 220.5,186.5C 225.833,187.167 225.833,187.833 220.5,188.5C 220.5,191.5 220.5,194.5 220.5,197.5C 221.833,197.5 223.167,197.5 224.5,197.5C 224.5,198.5 224.5,199.5 224.5,200.5C 221.453,201.145 219.287,200.145 218,197.5C 217.963,193.911 217.13,190.578 215.5,187.5C 217.005,186.158 217.672,184.492 217.5,182.5 Z"/></g>
<g><path style="opacity:1" fill="#1e1e1e" d="M 133.5,182.5 C 134.5,182.5 135.5,182.5 136.5,182.5C 136.5,183.833 136.5,185.167 136.5,186.5C 141.833,187.167 141.833,187.833 136.5,188.5C 136.5,191.5 136.5,194.5 136.5,197.5C 137.833,197.5 139.167,197.5 140.5,197.5C 140.5,198.5 140.5,199.5 140.5,200.5C 137.956,200.896 135.789,200.229 134,198.5C 133.985,194.585 133.152,190.918 131.5,187.5C 133.005,186.158 133.672,184.492 133.5,182.5 Z"/></g>
<g><path style="opacity:1" fill="#1a1a1a" d="M 156.5,186.5 C 157.097,191.294 156.43,195.627 154.5,199.5C 154.565,199.062 154.399,198.728 154,198.5C 147.768,202.131 143.934,200.465 142.5,193.5C 142.486,191.407 143.152,189.574 144.5,188C 148.484,186.742 152.484,186.242 156.5,186.5 Z"/></g>
<g><path style="opacity:1" fill="#050505" d="M 96.5,186.5 C 97.0969,191.294 96.4302,195.627 94.5,199.5C 93.9031,194.706 94.5698,190.373 96.5,186.5 Z"/></g>
<g><path style="opacity:1" fill="#1e1e1e" d="M 101.5,186.5 C 103.814,187.821 106.147,187.821 108.5,186.5C 110.697,186.848 112.53,187.848 114,189.5C 114.499,193.152 114.665,196.818 114.5,200.5C 113.5,200.5 112.5,200.5 111.5,200.5C 111.665,197.15 111.498,193.817 111,190.5C 108.448,188.98 106.282,189.313 104.5,191.5C 103.834,194.028 103.168,196.694 102.5,199.5C 101.508,195.217 101.174,190.884 101.5,186.5 Z"/></g>
<g><path style="opacity:1" fill="#7e7e7e" d="M 161.5,186.5 C 161.174,190.884 161.508,195.217 162.5,199.5C 163.168,196.694 163.834,194.028 164.5,191.5C 164.5,194.5 164.5,197.5 164.5,200.5C 163.167,200.5 161.833,200.5 160.5,200.5C 160.181,195.637 160.514,190.97 161.5,186.5 Z"/></g>
<g><path style="opacity:1" fill="#222222" d="M 203.5,186.5 C 206.753,187.247 210.086,187.247 213.5,186.5C 213.5,187.5 213.5,188.5 213.5,189.5C 211.208,189.244 209.041,189.577 207,190.5C 206.502,193.817 206.335,197.15 206.5,200.5C 205.5,200.5 204.5,200.5 203.5,200.5C 203.5,195.833 203.5,191.167 203.5,186.5 Z"/></g>
<g><path style="opacity:1" fill="#767676" d="M 156.5,186.5 C 157.486,190.97 157.819,195.637 157.5,200.5C 156.209,200.737 155.209,200.404 154.5,199.5C 156.43,195.627 157.097,191.294 156.5,186.5 Z"/></g>
<g><path style="opacity:1" fill="#3c3c3c" d="M 96.5,186.5 C 97.4861,190.97 97.8195,195.637 97.5,200.5C 96.209,200.737 95.209,200.404 94.5,199.5C 96.4302,195.627 97.0969,191.294 96.5,186.5 Z"/></g>
<g><path style="opacity:1" fill="#e9e9e9" d="M 148.5,188.5 C 154.293,189.421 155.626,192.255 152.5,197C 147,198.167 144.833,196 146,190.5C 146.995,189.934 147.828,189.267 148.5,188.5 Z"/></g>
<g><path style="opacity:1" fill="#191919" d="M 161.5,186.5 C 162.75,186.577 163.583,187.244 164,188.5C 166.667,185.833 169.333,185.833 172,188.5C 175.619,185.657 178.952,185.99 182,189.5C 182.499,193.152 182.665,196.818 182.5,200.5C 181.5,200.5 180.5,200.5 179.5,200.5C 179.665,197.15 179.498,193.817 179,190.5C 177.333,189.167 175.667,189.167 174,190.5C 173.502,193.817 173.335,197.15 173.5,200.5C 172.5,200.5 171.5,200.5 170.5,200.5C 170.665,197.15 170.498,193.817 170,190.5C 167.661,188.922 165.828,189.255 164.5,191.5C 163.834,194.028 163.168,196.694 162.5,199.5C 161.508,195.217 161.174,190.884 161.5,186.5 Z"/></g>
<g><path style="opacity:1" fill="#8b8b8b" d="M 101.5,186.5 C 101.174,190.884 101.508,195.217 102.5,199.5C 103.168,196.694 103.834,194.028 104.5,191.5C 104.5,194.5 104.5,197.5 104.5,200.5C 103.167,200.5 101.833,200.5 100.5,200.5C 100.181,195.637 100.514,190.97 101.5,186.5 Z"/></g>
<g><path style="opacity:1" fill="#141414" d="M 119.5,186.5 C 122.119,186.232 124.619,186.565 127,187.5C 127.688,188.332 127.521,188.998 126.5,189.5C 124.099,187.938 122.099,188.271 120.5,190.5C 122.461,192.113 124.794,193.113 127.5,193.5C 128.847,199.968 126.18,202.134 119.5,200C 117.74,199.035 117.406,197.868 118.5,196.5C 120.059,197.447 121.726,198.113 123.5,198.5C 125,198.547 126,197.881 126.5,196.5C 123.854,194.982 121.021,193.649 118,192.5C 117.252,190.16 117.752,188.16 119.5,186.5 Z"/></g>
<g><path style="opacity:1" fill="#171717" d="M 188.5,186.5 C 191.921,186.974 195.255,186.974 198.5,186.5C 199.833,191.167 199.833,195.833 198.5,200.5C 197.833,199.833 197.167,199.167 196.5,198.5C 190.484,201.992 186.817,200.325 185.5,193.5C 185.695,190.782 186.695,188.449 188.5,186.5 Z"/></g>
<g><path style="opacity:1" fill="#e8e8e8" d="M 190.5,188.5 C 195.989,188.504 197.822,191.171 196,196.5C 193.667,199.167 191.333,199.167 189,196.5C 188.109,193.502 188.609,190.836 190.5,188.5 Z"/></g>
</svg>
